<svg width="352" height="193" viewBox="0 0 352 193" fill="none" xmlns="http://www.w3.org/2000/svg">
<path d="M350.8 9.80801C349.577 6.89448 347.519 4.40825 344.885 2.66279C342.251 0.917324 339.16 -0.00921451 336 7.13625e-06H16.0001C12.8403 -0.00921451 9.74865 0.917324 7.11479 2.66279C4.48094 4.40825 2.42285 6.89448 1.20005 9.80801C0.048351 12.7641 -0.242783 15.9859 0.360331 19.1006C0.963445 22.2152 2.43616 25.0955 4.60806 27.408L164.608 187.408C167.666 190.36 171.75 192.01 176 192.01C180.25 192.01 184.335 190.36 187.392 187.408L347.392 27.408C349.564 25.0955 351.037 22.2152 351.64 19.1006C352.243 15.9859 351.952 12.7641 350.8 9.80801Z" fill="#049A4B"/>
</svg>
