<svg width="120" height="20" viewBox="0 0 120 20" fill="none" xmlns="http://www.w3.org/2000/svg">
<path d="M4.85413 18.3333L6.20829 12.4792L1.66663 8.54167L7.66663 8.02083L9.99996 2.5L12.3333 8.02083L18.3333 8.54167L13.7916 12.4792L15.1458 18.3333L9.99996 15.2292L4.85413 18.3333Z" fill="#FDB45F"/>
<path d="M29.8541 18.3333L31.2083 12.4792L26.6666 8.54167L32.6666 8.02083L35 2.5L37.3333 8.02083L43.3333 8.54167L38.7916 12.4792L40.1458 18.3333L35 15.2292L29.8541 18.3333Z" fill="#FDB45F"/>
<path d="M54.8541 18.3333L56.2083 12.4792L51.6666 8.54167L57.6666 8.02083L60 2.5L62.3333 8.02083L68.3333 8.54167L63.7916 12.4792L65.1458 18.3333L60 15.2292L54.8541 18.3333Z" fill="#FDB45F"/>
<path d="M79.8541 18.3333L81.2083 12.4792L76.6666 8.54167L82.6666 8.02083L85 2.5L87.3333 8.02083L93.3333 8.54167L88.7916 12.4792L90.1458 18.3333L85 15.2292L79.8541 18.3333Z" fill="#FDB45F"/>
<path d="M104.854 18.3333L106.208 12.4792L101.667 8.54167L107.667 8.02083L110 2.5L112.333 8.02083L118.333 8.54167L113.792 12.4792L115.146 18.3333L110 15.2292L104.854 18.3333Z" fill="#FDB45F"/>
</svg>
