<svg width="34" height="28" viewBox="0 0 34 28" fill="none" xmlns="http://www.w3.org/2000/svg">
<path d="M30.6 0H3.4C1.53 0 0.017 1.575 0.017 3.5L0 24.5C0 26.425 1.53 28 3.4 28H30.6C32.47 28 34 26.425 34 24.5V3.5C34 1.575 32.47 0 30.6 0ZM29.92 7.4375L17.901 15.1725C17.357 15.5225 16.643 15.5225 16.099 15.1725L4.08 7.4375C3.90954 7.33899 3.76026 7.20591 3.64121 7.04629C3.52216 6.88668 3.43581 6.70386 3.38738 6.5089C3.33895 6.31394 3.32945 6.11089 3.35947 5.91204C3.38948 5.71319 3.45837 5.52267 3.56198 5.35203C3.66559 5.18138 3.80175 5.03415 3.96223 4.91924C4.12272 4.80434 4.30418 4.72414 4.49564 4.68352C4.6871 4.6429 4.88458 4.64269 5.07612 4.68291C5.26767 4.72313 5.44929 4.80293 5.61 4.9175L17 12.25L28.39 4.9175C28.5507 4.80293 28.7323 4.72313 28.9239 4.68291C29.1154 4.64269 29.3129 4.6429 29.5044 4.68352C29.6958 4.72414 29.8773 4.80434 30.0378 4.91924C30.1982 5.03415 30.3344 5.18138 30.438 5.35203C30.5416 5.52267 30.6105 5.71319 30.6405 5.91204C30.6705 6.11089 30.6611 6.31394 30.6126 6.5089C30.5642 6.70386 30.4778 6.88668 30.3588 7.04629C30.2397 7.20591 30.0905 7.33899 29.92 7.4375Z" fill="black"/>
<path d="M30.6 0H3.4C1.53 0 0.017 1.575 0.017 3.5L0 24.5C0 26.425 1.53 28 3.4 28H30.6C32.47 28 34 26.425 34 24.5V3.5C34 1.575 32.47 0 30.6 0ZM29.92 7.4375L17.901 15.1725C17.357 15.5225 16.643 15.5225 16.099 15.1725L4.08 7.4375C3.90954 7.33899 3.76026 7.20591 3.64121 7.04629C3.52216 6.88668 3.43581 6.70386 3.38738 6.5089C3.33895 6.31394 3.32945 6.11089 3.35947 5.91204C3.38948 5.71319 3.45837 5.52267 3.56198 5.35203C3.66559 5.18138 3.80175 5.03415 3.96223 4.91924C4.12272 4.80434 4.30418 4.72414 4.49564 4.68352C4.6871 4.6429 4.88458 4.64269 5.07612 4.68291C5.26767 4.72313 5.44929 4.80293 5.61 4.9175L17 12.25L28.39 4.9175C28.5507 4.80293 28.7323 4.72313 28.9239 4.68291C29.1154 4.64269 29.3129 4.6429 29.5044 4.68352C29.6958 4.72414 29.8773 4.80434 30.0378 4.91924C30.1982 5.03415 30.3344 5.18138 30.438 5.35203C30.5416 5.52267 30.6105 5.71319 30.6405 5.91204C30.6705 6.11089 30.6611 6.31394 30.6126 6.5089C30.5642 6.70386 30.4778 6.88668 30.3588 7.04629C30.2397 7.20591 30.0905 7.33899 29.92 7.4375Z" fill="#049A4B"/>
</svg>
