<svg width="29" height="29" viewBox="0 0 29 29" fill="none" xmlns="http://www.w3.org/2000/svg">
<path d="M28.9321 21.8885C28.5942 21.5286 27.4011 20.4644 25.208 19.0564C22.9986 17.6362 21.3692 16.7506 20.9019 16.5441C20.8607 16.5259 20.8153 16.5192 20.7706 16.5248C20.7259 16.5303 20.6835 16.548 20.6481 16.5759C19.8953 17.163 18.6278 18.2414 18.5598 18.2997C18.1209 18.6758 18.1209 18.6758 17.7616 18.5586C17.1298 18.3515 15.1671 17.3093 13.4568 15.5951C11.7466 13.881 10.6506 11.8697 10.4435 11.2386C10.325 10.8787 10.325 10.8787 10.7024 10.4398C10.7607 10.3718 11.8398 9.10433 12.4269 8.35213C12.4548 8.31671 12.4724 8.27437 12.478 8.22966C12.4836 8.18495 12.4769 8.13956 12.4586 8.09837C12.2521 7.63035 11.3666 6.00166 9.94631 3.79231C8.5364 1.59979 7.47347 0.406755 7.11355 0.0688469C7.08053 0.0376797 7.0397 0.015998 6.99539 0.00608653C6.95107 -0.00382497 6.9049 -0.00159926 6.86174 0.0125289C5.60362 0.444873 4.38973 0.996539 3.23664 1.65999C2.1235 2.30708 1.06964 3.05117 0.087342 3.88358C0.0530523 3.91274 0.0273445 3.95067 0.0129755 3.99332C-0.00139362 4.03597 -0.00388187 4.08173 0.0057774 4.12569C0.141071 4.75619 0.787762 7.38825 2.79451 11.034C4.84204 14.7549 6.26101 16.6613 9.2679 19.6578C12.2748 22.6543 14.2414 24.1587 17.9662 26.2062C21.612 28.213 24.2454 28.8603 24.8746 28.9943C24.9186 29.0039 24.9645 29.0013 25.0072 28.987C25.0499 28.9726 25.088 28.947 25.1173 28.9127C25.9496 27.9305 26.6935 26.8766 27.3403 25.7635C28.0036 24.6103 28.5553 23.3965 28.9878 22.1384C29.0016 22.0956 29.0037 22.0498 28.994 22.0059C28.9842 21.9619 28.9628 21.9214 28.9321 21.8885Z" fill="#049A4B"/>
</svg>
