<svg width="26" height="27" viewBox="0 0 26 27" fill="none" xmlns="http://www.w3.org/2000/svg">
<g clip-path="url(#clip0_43_246)">
<path d="M9.34767 8.17007L8.65785 8.84917C8.65785 8.84917 7.0194 10.4657 11.4931 14.8762C15.9669 19.2868 17.6054 17.6703 17.6054 17.6703L18.0409 17.2434C19.1098 16.1882 20.8275 16.0882 22.0822 17.0091L24.645 18.8897C26.1981 20.0301 26.4037 22.2316 25.0789 23.5376L22.7035 25.881C22.0457 26.5272 21.196 26.9601 20.2519 26.9078C17.8353 26.7735 12.6382 25.7018 6.57476 19.7256C0.145762 13.3866 -0.110056 7.43875 0.121399 5.00733C0.194489 4.23716 0.593489 3.56848 1.14167 3.02964L3.29176 0.910186C4.74295 -0.522684 7.23258 -0.119734 8.24822 1.71315L9.83031 4.56401C10.4973 5.76698 10.3009 7.22979 9.34767 8.17007Z" fill="white"/>
</g>
<defs>
<clipPath id="clip0_43_246">
<rect width="27" height="26" fill="white" transform="matrix(1.19249e-08 -1 -1 -1.19249e-08 26 27)"/>
</clipPath>
</defs>
</svg>
